<?xml version="1.0" standalone="no"?>
<!DOCTYPE svg PUBLIC "-//W3C//DTD SVG 20010904//EN"
 "http://www.w3.org/TR/2001/REC-SVG-20010904/DTD/svg10.dtd">
<svg version="1.0" xmlns="http://www.w3.org/2000/svg"
 width="128.000000pt" height="128.000000pt" viewBox="0 0 128.000000 128.000000"
 preserveAspectRatio="xMidYMid meet">
<metadata>
Created by potrace 1.11, written by Peter Selinger 2001-2013
</metadata>
<g transform="translate(0.000000,128.000000) scale(0.100000,-0.100000)"
fill="#000000" stroke="none">
<path d="M745 1187 c-80 -32 -114 -82 -115 -171 0 -42 2 -47 18 -41 79 33 179
58 255 62 48 3 87 8 87 10 0 2 -9 20 -19 41 -49 94 -138 133 -226 99z"/>
<path d="M303 959 c-17 -11 -38 -30 -47 -43 -15 -24 -15 -24 30 -31 32 -4 54
-16 79 -41 19 -19 36 -34 38 -34 2 0 25 21 52 46 55 51 54 61 -5 102 -42 28
-104 29 -147 1z"/>
<path d="M795 950 c-159 -41 -269 -104 -317 -179 -36 -58 -36 -104 2 -109 38
-6 90 14 161 59 83 54 122 70 172 71 34 0 46 -5 69 -31 15 -17 28 -39 28 -49
0 -34 -40 -81 -122 -143 -169 -128 -233 -229 -206 -325 11 -43 64 -103 111
-129 l35 -18 73 60 c89 73 231 219 282 289 86 119 138 276 117 354 -11 41 -45
91 -83 120 -66 52 -194 64 -322 30z"/>
<path d="M201 809 c-76 -46 -107 -116 -98 -220 13 -153 141 -340 300 -437 36
-23 133 -56 192 -67 l39 -7 -40 44 c-78 84 -93 182 -44 282 24 50 145 164 244
230 62 41 74 68 44 98 -26 26 -68 19 -128 -24 -149 -106 -171 -118 -216 -118
-90 0 -134 49 -134 149 0 42 -4 53 -26 70 -34 27 -89 27 -133 0z"/>
</g>
</svg>
